<svg id="Layer_1" data-name="Layer 1" xmlns="http://www.w3.org/2000/svg" viewBox="0 0 1005.01 922">
    <title>Hall-8</title>
    <g id="layer2">
        <g id="g3987">
            <path id="background" d="M1,1H1004V921H1Z" transform="translate(0)"
                style="fill:#f8f8f8;stroke:#000;stroke-width:2px" />
            <path id="H867" d="M1,1H140.94V103.66H1Z" transform="translate(0)"
                style="fill:#ff8;stroke:#000;stroke-width:2px" />
            <path id="H801" d="M140.94,1h89.27V136.48H140.94Z" transform="translate(0)"
                style="fill:#ff8;stroke:#000;stroke-width:2px" />
            <path id="H803" d="M230.21,1H328.4V136.48H230.21Z" transform="translate(0)"
                style="fill:#ff8;stroke:#000;stroke-width:2px" />
            <path id="rect3787" d="M328.4,1h81.92V55.87H328.4Z" transform="translate(0)"
                style="fill:#ff8;stroke:#000;stroke-width:2px" />
            <path id="rect3789" d="M347.83,55.87h62.49V95.78H347.83Z" transform="translate(0)"
                style="fill:#ff8;stroke:#000;stroke-width:2px" />
            <path id="rect3791" d="M347.83,95.78h62.49v40.7H347.83Z" transform="translate(0)"
                style="fill:#ff8;stroke:#000;stroke-width:2px" />
            <path id="H807" d="M410.32,1h94V136.48h-94Z" transform="translate(0)"
                style="fill:#ff8;stroke:#000;stroke-width:2px" />
            <path id="H811" d="M586.48,1h97.67V136.48H586.48Z" transform="translate(0)"
                style="fill:#ff8;stroke:#000;stroke-width:2px" />
            <path id="H813" d="M684.17,1h81.92V136.48H684.17Z" transform="translate(0)"
                style="fill:#ff8;stroke:#000;stroke-width:2px" />
            <path id="H815" d="M865.33,1V106H837.48v30.46H766.09V1Z" transform="translate(0)"
                style="fill:#ff8;stroke:#000;stroke-width:2px" />
            <path id="H817" d="M865.33,1H1004V136H865.33Z" transform="translate(0)"
                style="fill:#ff8;stroke:#000;stroke-width:2px" />
            <path id="H819" d="M865.33,136H1004v97.1H865.33Z" transform="translate(0)"
                style="fill:#ff8;stroke:#000;stroke-width:2px" />
            <path id="H821" d="M865.33,233.1H1004v84.54H865.33Z" transform="translate(0)"
                style="fill:#ff8;stroke:#000;stroke-width:2px" />
            <path id="H823" d="M865.33,317.64H1004v97.15H865.33Z" transform="translate(0)"
                style="fill:#ff8;stroke:#000;stroke-width:2px" />
            <path id="H825" d="M865.33,414.79H1004v84.54H865.33Z" transform="translate(0)"
                style="fill:#ff8;stroke:#000;stroke-width:2px" />
            <path id="H827" d="M865.33,499.33H1004V594.9H865.33Z" transform="translate(0)"
                style="fill:#ff8;stroke:#000;stroke-width:2px" />
            <path id="H829" d="M865.33,594.9H1004v93H865.33Z" transform="translate(0)"
                style="fill:#ff8;stroke:#000;stroke-width:2px" />
            <path id="H831" d="M864.81,777.64H1004V921H864.81Z" transform="translate(0)"
                style="fill:#ff8;stroke:#000;stroke-width:2px" />
            <path id="H833" d="M774,777.64h90.85V921H774Z" transform="translate(0)"
                style="fill:#ff8;stroke:#000;stroke-width:2px" />
            <path id="H835" d="M681.54,777.64H774V921H681.54Z" transform="translate(0)"
                style="fill:#ff8;stroke:#000;stroke-width:2px" />
            <path id="H837" d="M588.6,777.64h92.94V921H588.6Z" transform="translate(0)"
                style="fill:#ff8;stroke:#000;stroke-width:2px" />
            <path id="H841" d="M415.84,777.12H503V921H415.84Z" transform="translate(0)"
                style="fill:#ff8;stroke:#000;stroke-width:2px" />
            <path id="H843" d="M317.11,777.12h98.73V921H317.11Z" transform="translate(0)"
                style="fill:#ff8;stroke:#000;stroke-width:2px" />
            <path id="H845" d="M234.15,777.12h83V921h-83Z" transform="translate(0)"
                style="fill:#ff8;stroke:#000;stroke-width:2px" />
            <path id="H847" d="M134.9,777.12h99.25V921H134.9Z" transform="translate(0)"
                style="fill:#ff8;stroke:#000;stroke-width:2px" />
            <path id="H849" d="M1,777.12H134.9V921H1Z" transform="translate(0)"
                style="fill:#ff8;stroke:#000;stroke-width:2px" />
            <path id="rect3843" d="M1,740.38H75v46.74H1Z" transform="translate(0)"
                style="fill:#ff8;stroke:#000;stroke-width:2px" />
            <path id="rect3845" d="M1,683.65H95.48v46.73H1Z" transform="translate(0)"
                style="fill:#ff8;stroke:#000;stroke-width:2px" />
            <path id="rect3847" d="M95.48,683.65h45.68V743H95.48Z" transform="translate(0)"
                style="fill:#ff8;stroke:#000;stroke-width:2px" />
            <path id="H853" d="M1,592.28H141.2v91.37H1Z" transform="translate(0)"
                style="fill:#ff8;stroke:#000;stroke-width:2px" />
            <path id="H855" d="M1,499.86H141.2v92.42H1Z" transform="translate(0)"
                style="fill:#ff8;stroke:#000;stroke-width:2px" />
            <path id="H857" d="M1,411.64H141.2v88.22H1Z" transform="translate(0)"
                style="fill:#ff8;stroke:#000;stroke-width:2px" />
            <path id="H859" d="M1,319.74H141.2v91.9H1Z" transform="translate(0)"
                style="fill:#ff8;stroke:#000;stroke-width:2px" />
            <path id="H861" d="M1,229.42H141.2v90.32H1Z" transform="translate(0)"
                style="fill:#ff8;stroke:#000;stroke-width:2px" />
            <path id="H863" d="M141.2,229.42V160.11H115.48v-21H1v90.32Z" transform="translate(0)"
                style="fill:#ff8;stroke:#000;stroke-width:2px" />
            <path id="rect3859" d="M1,103.66H115.48V139.1H1Z" transform="translate(0)"
                style="fill:#ff8;stroke:#000;stroke-width:2px" />
            <path id="path3863" d="M893.69,777.64V751.91H866.38l-1-64.06H1004v89.79Z"
                transform="translate(0)" style="fill:#ff8;stroke:#000;stroke-width:2px" />
            <path id="exit_top_left" data-name="exit top left"
                d="M195.29,191.62h91.37V324.47H195.29Z" transform="translate(0)"
                style="fill:#ff5460;stroke:#000;stroke-width:2px" />
            <path id="Women_s" data-name="Women s" d="M286.66,191.62H450.48v90.84H286.66Z"
                transform="translate(0)" style="fill:#a9eaff;stroke:#000;stroke-width:2px" />
            <path id="Women_s_door" data-name="Women s door" d="M363.85,191.62h50.41V242H363.85Z"
                transform="translate(0)" style="fill:#a9eaff;stroke:#000;stroke-width:2px" />
            <path id="rect3877" d="M286.66,282.46h32v42h-32Z" transform="translate(0)"
                style="fill:#ff8;stroke:#000;stroke-width:2px" />
            <path id="Elevator1" d="M318.69,282.46h33.08v34.66H318.69Z" transform="translate(0)"
                style="fill:#60f960;stroke:#000;stroke-width:2px" />
            <path id="Elevator2" d="M351.77,282.46h29.41v34.66H351.77Z" transform="translate(0)"
                style="fill:#60f960;stroke:#000;stroke-width:2px" />
            <path id="rect3885" d="M450.48,282.46H504v40.43H450.48Z" transform="translate(0)"
                style="fill:#ff8;stroke:#000;stroke-width:2px" />
            <path id="rect3887" d="M450.48,246.23H504v36.23H450.48Z" transform="translate(0)"
                style="fill:#ff8;stroke:#000;stroke-width:2px" />
            <path id="rect3889" d="M450.48,207.37H504v38.86H450.48Z" transform="translate(0)"
                style="fill:#ff8;stroke:#000;stroke-width:2px" />
            <path id="rect3891" d="M381.18,282.46h69.3v40.43h-69.3Z" transform="translate(0)"
                style="fill:#ff8;stroke:#000;stroke-width:2px" />
            <path id="escalator" d="M413.21,374.35H450V662.12H413.21Z" transform="translate(0)"
                style="fill:#ff8;stroke:#000;stroke-width:2px" />
            <path id="rect3897" d="M450,618h55.66v44.11H450Z" transform="translate(0)"
                style="fill:#ff8;stroke:#000;stroke-width:2px" />
            <path id="H862" d="M320.27,374.35h92.94V504.06H320.27Z" transform="translate(0)"
                style="fill:#ff8;stroke:#000;stroke-width:2px" />
            <path id="rect3901" d="M270.38,374.35h49.89v84H270.38Z" transform="translate(0)"
                style="fill:#ff8;stroke:#000;stroke-width:2px" />
            <path id="rect3903" d="M270.38,458.37h49.89v45.69H270.38Z" transform="translate(0)"
                style="fill:#ff8;stroke:#000;stroke-width:2px" />
            <path id="rect3908" d="M204.22,417.41h50.41v41H204.22Z" transform="translate(0)"
                style="fill:#ff8;stroke:#000;stroke-width:2px" />
            <path id="rect3913" d="M204.22,374.35h50.41v43.06H204.22Z" transform="translate(0)"
                style="fill:#ff8;stroke:#000;stroke-width:2px" />
            <path id="path3917" d="M270.38,504.32V475.7H255.15l-.52-17.33H204.22v46Z"
                transform="translate(0)" style="fill:#ff8;stroke:#000;stroke-width:2px" />
            <path id="exit_bottom_left" data-name="exit bottom left" d="M268.8,622.73h53v96.62h-53Z"
                transform="translate(0)" style="fill:#ff5460;stroke:#000;stroke-width:2px" />
            <path id="rect3923" d="M204.22,622.73H268.8v96.62H204.22Z" transform="translate(0)"
                style="fill:#ff8;stroke:#000;stroke-width:2px" />
            <path id="H854" d="M204.22,504.32v84.81h77.71V578.62h38.6V504.06Z"
                transform="translate(0)" style="fill:#ff8;stroke:#000;stroke-width:2px" />
            <path id="H842" d="M320.53,504.06V606.45h26v15.49h66.69V504.06Z"
                transform="translate(0)" style="fill:#ff8;stroke:#000;stroke-width:2px" />
            <path id="rect3931" d="M204.22,589.13h77.71v33.6H204.22Z" transform="translate(0)"
                style="fill:#ff8;stroke:#000;stroke-width:2px" />
            <path id="rect3933" d="M321.84,683.51H383.1v35.84H321.84Z" transform="translate(0)"
                style="fill:#ff8;stroke:#000;stroke-width:2px" />
            <path id="path3935" d="M413.21,662.12v38.47h56.4v17.82H506l-.37-56.29Z"
                transform="translate(0)" style="fill:#ff8;stroke:#000;stroke-width:2px" />
            <path id="path3937" d="M383.1,683.51V621.94H346.48v24.81H321.84v36.76Z"
                transform="translate(0)" style="fill:#ff8;stroke:#000;stroke-width:2px" />
            <path id="Men_s" data-name="Men s" d="M586.58,192.27h95V323.71h-95Z"
                transform="translate(0)" style="fill:#a9eaff;stroke:#000;stroke-width:2px" />
            <path id="Men_s_door" data-name="Men s door" d="M603.83,192.27h17.32V211H603.83Z"
                transform="translate(0)" style="fill:#a9eaff;stroke:#000;stroke-width:2px" />
            <path id="exit_top_right" data-name="exit top right" d="M681.63,192.27h53V323.71h-53Z"
                transform="translate(0)" style="fill:#ff5460;stroke:#000;stroke-width:2px" />
            <path id="rect3947" d="M734.58,192.27h70.63V295.33H734.58Z" transform="translate(0)"
                style="fill:#ff8;stroke:#000;stroke-width:2px" />
            <path id="rect3949" d="M734.58,295.33h70.63v28.38H734.58Z" transform="translate(0)"
                style="fill:#ff8;stroke:#000;stroke-width:2px" />
            <path id="H820_door" data-name="H820 door" d="M747.18,380.66h57.5v59.86h-57.5Z"
                transform="translate(0)" style="fill:#ff8;stroke:#000;stroke-width:2px" />
            <path id="H820" d="M586.58,323.71V497.24H765.92V440.52H747.17V380.65h18.75V323.71Z"
                transform="translate(0)" style="fill:#ff8;stroke:#000;stroke-width:2px" />
            <path id="H822" d="M684.17,497.23H807v126H684.17Z" transform="translate(0)"
                style="fill:#ff8;stroke:#000;stroke-width:2px" />
            <path id="exit_bottom_right" data-name="exit bottom right"
                d="M684.17,623.26h53.56v95.83H684.17Z" transform="translate(0)"
                style="fill:#ff5460;stroke:#000;stroke-width:2px" />
            <path id="rect3959" d="M737.73,623.26H807v95.83H737.73Z" transform="translate(0)"
                style="fill:#ff8;stroke:#000;stroke-width:2px" />
            <path id="rect3961" d="M642.68,623.26h41.49v95.83H642.68Z" transform="translate(0)"
                style="fill:#ff8;stroke:#000;stroke-width:2px" />
            <path id="rect3965" d="M586.58,592.54h36.76V656H586.58Z" transform="translate(0)"
                style="fill:#ff8;stroke:#000;stroke-width:2px" />
            <path id="rect3969" d="M586.58,656h36.76v32.34H586.58Z" transform="translate(0)"
                style="fill:#ff8;stroke:#000;stroke-width:2px" />
            <path id="rect3971" d="M586.58,688.37h36.76v30.72H586.58Z" transform="translate(0)"
                style="fill:#ff8;stroke:#000;stroke-width:2px" />
            <path id="path3973" d="M642.68,623.26H623.34" transform="translate(0)"
                style="fill:#da3636;stroke:#000;stroke-width:2px" />
            <path id="path3975" d="M684.17,497.23H586.58" transform="translate(0)"
                style="fill:#da3636;stroke:#000;stroke-width:2px" />
            <path id="path3981" d="M747.18,440.52l-33.61,56.71" transform="translate(0)"
                style="fill:#da3636;stroke:#000;stroke-width:2px" />
            <path id="path3983" d="M747.18,380.66l-34.36-57" transform="translate(0)"
                style="fill:#da3636;stroke:#000;stroke-width:2px" />
            <path id="path3985" d="M504.05,373.3V561.35" transform="translate(0)"
                style="fill:#da3636;stroke:#000;stroke-width:2px" />
            <path id="rect4717" d="M281.92,578.62v44.12h39.91v24h24.65V606.46h-26V578.62Z"
                transform="translate(0)" style="fill:#ff8;stroke:#000;stroke-width:2px" />
            <path id="H832.06" d="M586.58,495.24v95.31h36.75v30.72h60.84v-126Z"
                transform="translate(0)" style="fill:#ff8;stroke:#000;stroke-width:2px" />
            <g id="_867" data-name=" 867">
                <text transform="translate(352.47 40.48)"
                    style="isolation:isolate;font-size:24px;font-family:ArialMT, Arial">805
                </text>
            </g>
            <g id="_801" data-name=" 801">
                <text transform="translate(173.83 79.49)"
                    style="isolation:isolate;font-size:24px;font-family:ArialMT, Arial">801
                </text>
            </g>
            <g id="_803" data-name=" 803">
                <text transform="translate(254.63 79.49)"
                    style="isolation:isolate;font-size:24px;font-family:ArialMT, Arial">803
                </text>
            </g>
            <g id="_807" data-name=" 807">
                <text transform="translate(442.83 79.49)"
                    style="isolation:isolate;font-size:24px;font-family:ArialMT, Arial">807
                </text>
            </g>
            <g id="_811" data-name=" 811">
                <g style="isolation:isolate">
                    <text transform="translate(621.15 75.83)"
                        style="isolation:isolate;font-size:24px;font-family:ArialMT, Arial">8
                    </text>
                    <text transform="translate(634.5 75.83)"
                        style="isolation:isolate;font-size:24px;font-family:ArialMT, Arial;letter-spacing:-0.07399495442708333em">
                        1
                    </text>
                    <text transform="translate(646.07 75.83)"
                        style="font-size:24px;font-family:ArialMT, Arial"></text>
                    <text transform="translate(646.06 75.83)"
                        style="isolation:isolate;font-size:24px;font-family:ArialMT, Arial">1
                    </text>
                </g>
            </g>
            <g id="_813" data-name=" 813">
                <text transform="translate(708.1 75.83)"
                    style="isolation:isolate;font-size:24px;font-family:ArialMT, Arial">813
                </text>
            </g>
            <g id="_815" data-name=" 815">
                <text transform="translate(796.83 75.83)"
                    style="isolation:isolate;font-size:24px;font-family:ArialMT, Arial">815
                </text>
            </g>
            <g id="_817" data-name=" 817">
                <text transform="translate(913.83 79.49)"
                    style="isolation:isolate;font-size:24px;font-family:ArialMT, Arial">817
                </text>
            </g>
            <g id="_819" data-name=" 819">
                <text transform="translate(913.83 201.65)"
                    style="isolation:isolate;font-size:24px;font-family:ArialMT, Arial">819
                </text>
            </g>
            <g id="_821" data-name=" 821">
                <text transform="translate(913.83 293)"
                    style="isolation:isolate;font-size:24px;font-family:ArialMT, Arial">821
                </text>
            </g>
            <g id="_823" data-name=" 823">
                <text transform="translate(913.83 381.21)"
                    style="isolation:isolate;font-size:24px;font-family:ArialMT, Arial">823
                </text>
            </g>
            <g id="_825" data-name=" 825">
                <text transform="translate(913.83 465.59)"
                    style="isolation:isolate;font-size:24px;font-family:ArialMT, Arial">825
                </text>
            </g>
            <g id="_827" data-name=" 827">
                <text transform="translate(913.83 568.36)"
                    style="isolation:isolate;font-size:24px;font-family:ArialMT, Arial">827
                </text>
            </g>
            <g id="_829" data-name=" 829">
                <text transform="translate(918.83 655.31)"
                    style="isolation:isolate;font-size:24px;font-family:ArialMT, Arial">829
                </text>
            </g>
            <g id="_831" data-name=" 831">
                <text transform="translate(918.83 868.49)"
                    style="isolation:isolate;font-size:24px;font-family:ArialMT, Arial">831
                </text>
            </g>
            <g id="_833" data-name=" 833">
                <text transform="translate(804.68 868.49)"
                    style="isolation:isolate;font-size:24px;font-family:ArialMT, Arial">833
                </text>
            </g>
            <g id="_835" data-name=" 835">
                <text transform="translate(710.95 868.49)"
                    style="isolation:isolate;font-size:24px;font-family:ArialMT, Arial">835
                </text>
            </g>
            <g id="_837" data-name=" 837">
                <text transform="translate(612.49 868.49)"
                    style="isolation:isolate;font-size:24px;font-family:ArialMT, Arial">837
                </text>
            </g>
            <g id="_841" data-name=" 841">
                <text transform="translate(442.83 868.49)"
                    style="isolation:isolate;font-size:24px;font-family:ArialMT, Arial">841
                </text>
            </g>
            <g id="_843" data-name=" 843">
                <text transform="translate(351.77 868.49)"
                    style="isolation:isolate;font-size:24px;font-family:ArialMT, Arial">843
                </text>
            </g>
            <g id="_845" data-name=" 845">
                <text transform="translate(262.38 868.49)"
                    style="isolation:isolate;font-size:24px;font-family:ArialMT, Arial">845
                </text>
            </g>
            <g id="_847" data-name=" 847">
                <text transform="translate(166.83 868.49)"
                    style="isolation:isolate;font-size:24px;font-family:ArialMT, Arial">847
                </text>
            </g>
            <g id="_849" data-name=" 849">
                <text transform="translate(38.02 868.49)"
                    style="isolation:isolate;font-size:24px;font-family:ArialMT, Arial">849
                </text>
            </g>
            <g id="_853" data-name=" 853">
                <text transform="translate(34.83 646.74)"
                    style="isolation:isolate;font-size:24px;font-family:ArialMT, Arial">853
                </text>
            </g>
            <g id="_855" data-name=" 855">
                <text transform="translate(34.83 558.26)"
                    style="isolation:isolate;font-size:24px;font-family:ArialMT, Arial">855
                </text>
            </g>
            <g id="_857" data-name=" 857">
                <text transform="translate(38.02 461)"
                    style="isolation:isolate;font-size:24px;font-family:ArialMT, Arial">857
                </text>
            </g>
            <g id="_859" data-name=" 859">
                <text transform="translate(38.02 380.66)"
                    style="isolation:isolate;font-size:24px;font-family:ArialMT, Arial">859
                </text>
            </g>
            <g id="_861" data-name=" 861">
                <text transform="translate(42.83 282.46)"
                    style="isolation:isolate;font-size:24px;font-family:ArialMT, Arial">861
                </text>
            </g>
            <g id="_863" data-name=" 863">
                <text transform="translate(42.83 196.49)"
                    style="isolation:isolate;font-size:24px;font-family:ArialMT, Arial">863
                </text>
            </g>
            <g id="exit">
                <text transform="translate(693.83 683.51)"
                    style="isolation:isolate;font-size:24px;font-family:ArialMT, Arial">exit
                </text>
            </g>
            <g id="Women_s-2" data-name="Women s-2">
                <g style="isolation:isolate">
                    <text transform="translate(320.27 268.49)"
                        style="isolation:isolate;font-size:24px;font-family:ArialMT, Arial;letter-spacing:-0.01800537109375em">
                        W
                    </text>
                    <text transform="translate(342.49 268.49)"
                        style="font-size:24px;font-family:ArialMT, Arial"></text>
                    <text transform="translate(342.49 268.49)"
                        style="isolation:isolate;font-size:24px;font-family:ArialMT, Arial">omen&apos;s
                    </text>
                </g>
            </g>
            <g id="Men_s-2" data-name="Men s-2">
                <text transform="translate(603.83 274.58)"
                    style="isolation:isolate;font-size:24px;font-family:ArialMT, Arial">Men&apos;s
                </text>
            </g>
            <g id="_820" data-name=" 820">
                <text transform="translate(647.83 431.49)"
                    style="isolation:isolate;font-size:24px;font-family:ArialMT, Arial">820
                </text>
            </g>
            <g id="_832.06" data-name=" 832.06">
                <text transform="translate(603.83 563)"
                    style="isolation:isolate;font-size:24px;font-family:ArialMT, Arial">832.06
                </text>
            </g>
            <g id="_822" data-name=" 822">
                <text transform="translate(725.13 574.49)"
                    style="isolation:isolate;font-size:24px;font-family:ArialMT, Arial">822
                </text>
            </g>
            <g id="exit-2">
                <text transform="translate(275.63 683.51)"
                    style="isolation:isolate;font-size:24px;font-family:ArialMT, Arial">exit
                </text>
            </g>
            <g id="exit-3">
                <text transform="translate(688.83 274.58)"
                    style="isolation:isolate;font-size:24px;font-family:ArialMT, Arial">exit
                </text>
            </g>
            <g id="_862" data-name=" 862">
                <text transform="translate(346.52 455.75)"
                    style="isolation:isolate;font-size:24px;font-family:ArialMT, Arial">862
                </text>
            </g>
            <g id="_842" data-name=" 842">
                <text transform="translate(347.83 563)"
                    style="isolation:isolate;font-size:24px;font-family:ArialMT, Arial">842
                </text>
            </g>
            <g id="_854" data-name=" 854">
                <text transform="translate(240.98 558.26)"
                    style="isolation:isolate;font-size:24px;font-family:ArialMT, Arial">854
                </text>
            </g>
            <g id="exit-4">
                <text transform="translate(221.83 274.58)"
                    style="isolation:isolate;font-size:24px;font-family:ArialMT, Arial">exit
                </text>
            </g>
        </g>
    </g>
    <line x1="1" y1="921" x2="1004" y2="921"
        style="fill:none;stroke:#000;stroke-miterlimit:10;stroke-width:2px" />
</svg>