<svg id="Layer_1" data-name="Layer 1" xmlns="http://www.w3.org/2000/svg" viewBox="0 0 1001 921">
    <title>Hall-1</title>
    <rect x="575" y="1.5" width="87.5" height="172.3"
        style="fill:#ff8;stroke:#000;stroke-miterlimit:10;stroke-width:2px" />
    <rect x="905.2" y="277.77" width="94.8" height="166.22" style="fill:#ff8" />
    <rect x="905.2" y="277.77" width="94.8" height="166.22"
        style="fill:none;stroke:#000;stroke-miterlimit:10;stroke-width:2px" />
    <rect x="574" y="396.6" width="88.4" height="112.75"
        style="fill:#ff8;stroke:#000;stroke-miterlimit:10;stroke-width:2px" />
    <rect x="209.7" y="860.3" width="290.3" height="59.7" style="fill:#ff8" />
    <rect x="209.7" y="859.3" width="290.3" height="59.7"
        style="fill:none;stroke:#000;stroke-miterlimit:10;stroke-width:2px" />
    <line x1="647.7" y1="920.01" x2="647.7" y2="861.3"
        style="fill:none;stroke:#000;stroke-miterlimit:10;stroke-width:2px" />
    <line x1="830.2" y1="861.3" x2="647.3" y2="861.3"
        style="fill:none;stroke:#000;stroke-miterlimit:10;stroke-width:2px" />
    <rect x="952.3" y="443.99" width="47.7" height="245.72" style="fill:#ff5460" />
    <rect x="952.3" y="443.99" width="47.7" height="245.72"
        style="fill:none;stroke:#000;stroke-miterlimit:10;stroke-width:2px" />
    <line x1="742.9" y1="396.6" x2="742.9" y2="509.34"
        style="fill:none;stroke:#000;stroke-miterlimit:10;stroke-width:2px" />
    <line x1="800.8" y1="396.6" x2="800.8" y2="509.34"
        style="fill:none;stroke:#000;stroke-miterlimit:10;stroke-width:2px" />
    <polygon points="423.7 631.14 425.9 631.14 425.9 631.14 423.7 631.14" style="fill:none" />
    <line x1="662.4" y1="369.86" x2="662.4" y2="277.77"
        style="fill:none;stroke:#231f20;stroke-miterlimit:10" />
    <line x1="662.4" y1="173.8" x2="662.4" y2="1.64"
        style="fill:none;stroke:#231f20;stroke-miterlimit:10" />
    <line x1="662.4" y1="79.3" x2="1000" y2="79.3"
        style="fill:none;stroke:#231f20;stroke-miterlimit:10" />
    <line x1="661.5" y1="320.07" x2="751.3" y2="320.07"
        style="fill:none;stroke:#231f20;stroke-miterlimit:10" />
    <line x1="750.3" y1="277.77" x2="750.3" y2="320.07"
        style="fill:none;stroke:#231f20;stroke-miterlimit:10" />
    <line x1="704.2" y1="261.64" x2="704.2" y2="201.81" style="fill:none" />
    <line x1="905.2" y1="79.16" x2="905.2" y2="135.6"
        style="fill:none;stroke:#231f20;stroke-miterlimit:10" />
    <line x1="905.2" y1="277.77" x2="1000" y2="277.77"
        style="fill:none;stroke:#231f20;stroke-miterlimit:10" />
    <line x1="425.9" y1="921" x2="425.9" y2="861.3"
        style="fill:none;stroke:#000;stroke-miterlimit:10;stroke-width:2px" />
    <rect x="573.8" y="277.77" width="88.6" height="118.97"
        style="fill:#ff8;stroke:#000;stroke-miterlimit:10;stroke-width:2px" />
    <rect x="662.4" y="277.77" width="163.1" height="118.97"
        style="fill:#ff8;stroke:#000;stroke-miterlimit:10;stroke-width:2px" />
    <line y1="919" x2="1000" y2="919"
        style="fill:none;stroke:#231f20;stroke-miterlimit:10;stroke-width:2px" />
    <line x1="887.2" y1="79.3" x2="1000" y2="79.3"
        style="fill:none;stroke:#231f20;stroke-miterlimit:10" />
    <rect x="662.5" y="1.5" width="337.5" height="77.8" style="fill:#ff8" />
    <rect x="662.5" y="1.5" width="337.5" height="77.8"
        style="fill:none;stroke:#000;stroke-miterlimit:10;stroke-width:2px" />
    <rect x="976.1" y="155.97" width="23.9" height="121.8"
        style="fill:#ff8;stroke:#231f20;stroke-miterlimit:10;stroke-width:2px" />
    <polygon
        points="442.6 156.96 461.9 305.21 346.6 376.23 158 376.37 157.97 376.45 41.9 306.49 61.8 155.97 162.2 1.5 340.6 1.64 442.6 156.96"
        style="fill:#ff8" />
    <line x1="158" y1="376.37" x2="346.6" y2="376.23"
        style="fill:none;stroke:#000;stroke-miterlimit:10;stroke-width:2px" />
    <line x1="162.2" y1="1.5" x2="61.8" y2="155.97"
        style="fill:none;stroke:#000;stroke-miterlimit:10;stroke-width:2px" />
    <line x1="61.8" y1="155.97" x2="41.9" y2="306.49"
        style="fill:none;stroke:#000;stroke-miterlimit:10;stroke-width:2px" />
    <line x1="442.6" y1="156.96" x2="340.6" y2="1.64"
        style="fill:none;stroke:#000;stroke-miterlimit:10;stroke-width:2px" />
    <line x1="442.6" y1="156.96" x2="461.9" y2="305.21"
        style="fill:none;stroke:#000;stroke-miterlimit:10;stroke-width:2px" />
    <polyline points="41.9 306.49 157.97 376.45 158.3 376.65"
        style="fill:none;stroke:#000;stroke-miterlimit:10;stroke-width:2px" />
    <line x1="461.9" y1="305.21" x2="346.6" y2="376.23"
        style="fill:none;stroke:#000;stroke-miterlimit:10;stroke-width:2px" />
    <line x1="162.2" y1="1.5" x2="340.6" y2="1.64"
        style="fill:none;stroke:#231f20;stroke-miterlimit:10;stroke-width:2px" />
    <path d="M162.2,1v.5L61.8,156v.5L42,306.5H1V1Z" style="fill:#ff8" />
    <line x1="41.9" y1="306.49" x2="1" y2="306.49"
        style="fill:none;stroke:#000;stroke-linecap:round;stroke-linejoin:round;stroke-width:2px" />
    <line x1="162.2" y1="1" x2="1" y2="1"
        style="fill:none;stroke:#000;stroke-linecap:round;stroke-linejoin:round;stroke-width:2px" />
    <line x1="162.2" y1="1.5" x2="61.8" y2="155.97"
        style="fill:none;stroke:#000;stroke-linecap:round;stroke-linejoin:round;stroke-width:2px" />
    <polyline points="61.8 156.47 41.96 306.5 41.9 306.98"
        style="fill:none;stroke:#000;stroke-linecap:round;stroke-linejoin:round;stroke-width:2px" />
    <path d="M1,1V306.49"
        style="fill:none;stroke:#000;stroke-linecap:round;stroke-linejoin:round;stroke-width:2px" />
    <polygon points="501 1.64 501 61.19 379.8 61.19 340.6 1.64 501 1.64" style="fill:#ff8" />
    <line x1="501" y1="1.64" x2="501" y2="61.19"
        style="fill:none;stroke:#000;stroke-miterlimit:10;stroke-width:2px" />
    <line x1="340.6" y1="1.64" x2="501" y2="1.64"
        style="fill:none;stroke:#000;stroke-linecap:round;stroke-linejoin:round;stroke-width:2px" />
    <line x1="501" y1="61.19" x2="379.8" y2="61.19"
        style="fill:none;stroke:#231f20;stroke-miterlimit:10;stroke-width:2px" />
    <line x1="340.6" y1="1.64" x2="379.8" y2="61.19"
        style="fill:none;stroke:#000;stroke-linecap:round;stroke-linejoin:round;stroke-width:2px" />
    <polygon points="501 61.19 501 156.96 442.6 98.82 410 107.45 379.8 61.19 501 61.19"
        style="fill:#a9eaff" />
    <line x1="501" y1="156.96" x2="442.6" y2="98.82"
        style="fill:none;stroke:#231f20;stroke-miterlimit:10;stroke-width:2px" />
    <line x1="410" y1="107.45" x2="442.6" y2="98.82"
        style="fill:none;stroke:#231f20;stroke-miterlimit:10;stroke-width:2px" />
    <line x1="379.8" y1="61.19" x2="410" y2="107.45"
        style="fill:none;stroke:#000;stroke-linecap:round;stroke-linejoin:round;stroke-width:2px" />
    <line x1="501" y1="61.19" x2="501" y2="156.96"
        style="fill:none;stroke:#000;stroke-linecap:round;stroke-linejoin:round;stroke-width:2px" />
    <line x1="379.8" y1="61.19" x2="501" y2="61.19"
        style="fill:none;stroke:#000;stroke-linecap:round;stroke-linejoin:round;stroke-width:2px" />
    <polygon
        points="501 156.96 501 277.77 458.3 277.77 442.6 156.96 410 107.45 442.6 98.82 501 156.96"
        style="fill:#a9eaff" />
    <line x1="410" y1="107.45" x2="442.6" y2="156.96"
        style="fill:none;stroke:#231f20;stroke-miterlimit:10;stroke-width:2px" />
    <line x1="442.6" y1="156.96" x2="458.3" y2="277.77"
        style="fill:none;stroke:#231f20;stroke-miterlimit:10;stroke-width:2px" />
    <line x1="442.6" y1="98.82" x2="410" y2="107.45"
        style="fill:none;stroke:#231f20;stroke-miterlimit:10;stroke-width:2px" />
    <line x1="458.3" y1="277.77" x2="501" y2="277.77"
        style="fill:none;stroke:#000;stroke-miterlimit:10;stroke-width:2px" />
    <line x1="442.6" y1="98.82" x2="501" y2="156.96"
        style="fill:none;stroke:#231f20;stroke-miterlimit:10;stroke-width:2px" />
    <line x1="501" y1="156.96" x2="501" y2="277.77"
        style="fill:none;stroke:#231f20;stroke-miterlimit:10;stroke-width:2px" />
    <rect x="662.4" y="79.3" width="132.63" height="94.5"
        style="fill:#ff8;stroke:#000;stroke-miterlimit:10;stroke-width:2px" />
    <rect x="795.03" y="79.3" width="110.17" height="94.5" style="fill:#ff8" />
    <rect x="795.03" y="79.3" width="110.17" height="94.5"
        style="fill:none;stroke:#000;stroke-miterlimit:10;stroke-width:2px" />
    <polygon
        points="1000 79.3 1000 155.97 976.1 155.97 976.1 277.77 905.2 277.77 905.2 79.3 1000 79.3"
        style="fill:#ff8" />
    <line x1="1000" y1="79.3" x2="1000" y2="155.97"
        style="fill:none;stroke:#000;stroke-miterlimit:10;stroke-width:2px" />
    <line x1="976.1" y1="155.97" x2="976.1" y2="277.77"
        style="fill:none;stroke:#231f20;stroke-miterlimit:10;stroke-width:2px" />
    <line x1="976.1" y1="155.97" x2="1000" y2="155.97"
        style="fill:none;stroke:#231f20;stroke-miterlimit:10;stroke-width:2px" />
    <line x1="905.2" y1="79.3" x2="1000" y2="79.3"
        style="fill:none;stroke:#231f20;stroke-miterlimit:10;stroke-width:2px" />
    <line x1="905.2" y1="79.3" x2="905.2" y2="277.77"
        style="fill:none;stroke:#231f20;stroke-miterlimit:10;stroke-width:2px" />
    <polyline points="905.2 277.77 976.1 277.77 1000 277.77"
        style="fill:none;stroke:#231f20;stroke-miterlimit:10;stroke-width:2px" />
    <rect x="662.4" y="277.77" width="45.1" height="63.8"
        style="fill:#60f960;stroke:#000;stroke-miterlimit:10" />
    <rect x="707.5" y="277.77" width="45.1" height="63.8"
        style="fill:#60f960;stroke:#000;stroke-miterlimit:10" />
    <line x1="500" y1="1.64" x2="575" y2="1.5"
        style="fill:none;stroke:#000;stroke-miterlimit:10;stroke-width:2px" />
    <path d="M1000,805.35Z" style="fill:none;stroke:#000;stroke-miterlimit:10;stroke-width:2px" />
    <line x1="1" y1="306.49" x2="1" y2="921"
        style="fill:none;stroke:#000;stroke-miterlimit:10;stroke-width:2px" />
    <text transform="translate(204.43 213.54)"
        style="isolation:isolate;font-size:37px;font-family:ArialMT, Arial">
        <tspan style="letter-spacing:-0.07421875em">1</tspan>
        <tspan x="17.83" y="0">10</tspan>
    </text>
    <g style="isolation:isolate">
        <text transform="translate(484.6 266.74) rotate(-90)"
            style="isolation:isolate;font-size:28px;font-family:ArialMT, Arial;letter-spacing:-0.03199986049107143em">
            W
        </text>
        <text transform="translate(484.6 241.24) rotate(-90)"
            style="font-size:28px;font-family:ArialMT, Arial"></text>
        <text transform="translate(484.6 243.98) rotate(-90)"
            style="isolation:isolate;font-size:28px;font-family:ArialMT, Arial">ome
        </text>
        <text transform="translate(484.6 189.51) rotate(-90)"
            style="font-size:28px;font-family:ArialMT, Arial"></text>
        <text transform="translate(484.6 191.22) rotate(-90)"
            style="isolation:isolate;font-size:28px;font-family:ArialMT, Arial;letter-spacing:-0.03199986049107143em">
            n
        </text>
        <text transform="translate(484.6 176.57) rotate(-90)"
            style="font-size:28px;font-family:ArialMT, Arial"></text>
        <text transform="translate(484.6 176.61) rotate(-90)"
            style="isolation:isolate;font-size:28px;font-family:ArialMT, Arial;letter-spacing:-0.10810198102678571em">
            ’
        </text>
        <text transform="translate(484.6 172.41) rotate(-90)"
            style="font-size:28px;font-family:ArialMT, Arial"></text>
        <text transform="translate(484.6 172.83) rotate(-90)"
            style="isolation:isolate;font-size:28px;font-family:ArialMT, Arial">s
        </text>
    </g>
    <g style="isolation:isolate">
        <text transform="translate(417.49 91.19)"
            style="isolation:isolate;font-size:28px;font-family:ArialMT, Arial;letter-spacing:0.0050048828125em">
            M
        </text>
        <text transform="translate(440.98 91.19)"
            style="font-size:28px;font-family:ArialMT, Arial"></text>
        <text transform="translate(440.17 91.19)"
            style="isolation:isolate;font-size:28px;font-family:ArialMT, Arial">e
        </text>
        <text transform="translate(455.74 91.19)"
            style="font-size:28px;font-family:ArialMT, Arial"></text>
        <text transform="translate(454.2 91.19)"
            style="isolation:isolate;font-size:28px;font-family:ArialMT, Arial;letter-spacing:-0.032993861607142856em">
            n
        </text>
        <text transform="translate(468.85 91.19)"
            style="font-size:28px;font-family:ArialMT, Arial"></text>
        <text transform="translate(468.81 91.19)"
            style="isolation:isolate;font-size:28px;font-family:ArialMT, Arial;letter-spacing:-0.10810198102678571em">
            ’
        </text>
        <text transform="translate(473.02 91.19)"
            style="font-size:28px;font-family:ArialMT, Arial"></text>
        <text transform="translate(472.59 91.19)"
            style="isolation:isolate;font-size:28px;font-family:ArialMT, Arial">s
        </text>
    </g>
    <g style="isolation:isolate">
        <text transform="translate(986.51 602.6) rotate(-90)"
            style="isolation:isolate;font-size:35px;font-family:ArialMT, Arial;letter-spacing:-0.0029994419642857145em">
            e
        </text>
        <text transform="translate(986.51 583.24) rotate(-90)"
            style="font-size:35px;font-family:ArialMT, Arial"></text>
        <text transform="translate(986.51 585.17) rotate(-90)"
            style="isolation:isolate;font-size:35px;font-family:ArialMT, Arial">xit
        </text>
    </g>
</svg>