<svg id="Layer_1" data-name="Layer 1" xmlns="http://www.w3.org/2000/svg" viewBox="0 0 1002 922">
    <title>MB-1</title>
    <path id="background" d="M0,0H1000V920H0Z" transform="translate(1 1)"
        style="fill:#f8f8f8;stroke:#000;stroke-width:2px" />
    <g id="g3906">
        <path id="path3908"
            d="M90.43,766.9l732.1-102.1V649L933.6,616.9V390.4h8.57V344h9.28V145.1H598.4V273.9H56.23v36.6H73.28V494.8H56.93v25H41.28V728.4H90.43v38.5Z"
            transform="translate(1 1)" style="fill:#fff;stroke:#000;stroke-width:2px" />
        <path id="path3910" d="M41.28,607.6h71.18V578.3H151V506.2h-94v13.6H41.28v87.8Z"
            transform="translate(1 1)" style="fill:#ff5460;stroke:#000;stroke-width:2px" />
        <path id="path3912"
            d="M96.81,506.1v-35l30.51-17.7h52.84V273.9H56.23v36.6H73.28V494.8H56.93v11.4H96.81Z"
            transform="translate(1 1)" style="fill:#ff8;stroke:#000;stroke-width:2px" />
        <path id="path3914" d="M184.45,576.1V513.2L237.69,314H416.55l47.56,178.1v84.1l-279.66-.1Z"
            transform="translate(1 1)" style="fill:#ff8;stroke:#000;stroke-width:2px" />
        <path id="path3916"
            d="M180.16,365.4h43.77l13.76-51.5H416.55L449.15,436h33.6V390.4H524V364.7H460.62V273.9H180.16v91.5Z"
            transform="translate(1 1)" style="fill:#ff8;stroke:#000;stroke-width:2px" />
        <path id="path3918" d="M482.85,436v74.4H464.21V492.1L449.15,436Z" transform="translate(1 1)"
            style="fill:#ff8;stroke:#000;stroke-width:2px" />
        <path id="path3920" d="M448,609.7H375.27" transform="translate(1 1)"
            style="fill:#ccc;stroke:#000;stroke-width:2px" />
        <path id="path3922" d="M385.64,609.7V576.1" transform="translate(1 1)"
            style="fill:#ccc;stroke:#000;stroke-width:2px" />
        <path id="path3924" d="M345.06,609.7H181.26" transform="translate(1 1)"
            style="fill:#ccc;stroke:#000;stroke-width:2px" />
        <rect id="rect3926" x="599.4" y="146.1" width="175.77" height="128.8"
            style="fill:#ff8;stroke:#000;stroke-width:2px" />
        <rect id="rect3928" x="607.78" y="274.9" width="99.7" height="116.6"
            style="fill:#ff8;stroke:#000;stroke-width:2px" />
        <rect id="rect3930" x="509.47" y="325.7" width="58.03" height="40"
            style="fill:#ff8;stroke:#000;stroke-width:2px" />
        <rect id="rect3932" x="567.5" y="274.9" width="40.28" height="90.8"
            style="fill:#ff5460;stroke:#000;stroke-width:2px" />
        <rect id="rect3934" x="461.72" y="274.9" width="105.78" height="50.8"
            style="fill:#ff8;stroke:#000;stroke-width:2px" />
        <rect id="rect3936" x="461.72" y="325.7" width="47.76" height="40"
            style="fill:#ff8;stroke:#000;stroke-width:2px" />
        <rect id="rect3938" x="483.85" y="391.4" width="41.28" height="40"
            style="fill:#60f960;stroke:#000;stroke-width:2px" />
        <rect id="rect3940" x="483.85" y="431.4" width="41.28" height="37.9"
            style="fill:#60f960;stroke:#000;stroke-width:2px" />
        <rect id="rect3942" x="483.85" y="469.3" width="41.28" height="42.1"
            style="fill:#60f960;stroke:#000;stroke-width:2px" />
        <rect id="rect3944" x="568.6" y="469.6" width="39.18" height="41.8"
            style="fill:#60f960;stroke:#000;stroke-width:2px" />
        <rect id="rect3946" x="568.6" y="430.7" width="39.18" height="38.9"
            style="fill:#60f960;stroke:#000;stroke-width:2px" />
        <rect id="rect3948" x="568.6" y="391.4" width="39.18" height="39.3"
            style="fill:#60f960;stroke:#000;stroke-width:2px" />
        <rect id="rect3950" x="607.78" y="391.4" width="60.12" height="120"
            style="fill:#ff8;stroke:#000;stroke-width:2px" />
        <path id="path3952" d="M666.8,442.3h48.35v7.3h36.5V417.8h22.43V396.9H751.65v-6.4H666.8Z"
            transform="translate(1 1)" style="fill:#a9eaff;stroke:#000;stroke-width:2px" />
        <rect id="rect3954" x="707.48" y="383" width="45.26" height="8.5"
            style="fill:#ff8;stroke:#000;stroke-width:2px" />
        <rect id="rect3956" x="707.48" y="355.7" width="45.26" height="27.3"
            style="fill:#ff8;stroke:#000;stroke-width:2px" />
        <path id="path3958" d="M706.48,354.7h67.7V330.4H751.74V273.8H706.48Z"
            transform="translate(1 1)" style="fill:#a9eaff;stroke:#000;stroke-width:2px" />
        <rect id="rect3960" x="752.65" y="274.9" width="22.43" height="26"
            style="fill:#ff8;stroke:#000;stroke-width:2px" />
        <rect id="rect3962" x="752.65" y="300.9" width="22.43" height="30.5"
            style="fill:#ff8;stroke:#000;stroke-width:2px" />
        <path id="path3964"
            d="M774.08,219h28.81V361.9h66.2V292.2h19.25V266.1H848.45V195.7h102.9V145H774.08Z"
            transform="translate(1 1)" style="fill:#ff5460;stroke:#000;stroke-width:2px" />
        <path id="path3966"
            d="M848.55,266.2h39.88v26.1H869.19V362H850.35v28.6h91.92V344h9.28V195.8h-103Z"
            transform="translate(1 1)" style="fill:#ff8;stroke:#000;stroke-width:2px" />
        <rect id="rect3968" x="817.15" y="362.9" width="34.2" height="28.6"
            style="fill:#ff8;stroke:#000;stroke-width:2px" />
        <path id="path3970" d="M733.7,473.6h40.48V417.8H751.74v38.5h-18Z" transform="translate(1 1)"
            style="fill:#ff8;stroke:#000;stroke-width:2px" />
        <path id="path3972" d="M716.45,527.2h74.28V473.6h-57V456.4H716.45v70.8Z"
            transform="translate(1 1)" style="fill:#ff8;stroke:#000;stroke-width:2px" />
        <rect id="rect3974" x="667.8" y="457.3" width="49.65" height="54.1"
            style="fill:#ff8;stroke:#000;stroke-width:2px" />
        <rect id="rect3976" x="697.51" y="488.8" width="19.94" height="22.7"
            style="fill:#ff8;stroke:#000;stroke-width:2px" />
        <path id="path3978" d="M568.2,700.2V614.4H736" transform="translate(1 1)"
            style="fill:#fff;stroke:#000;stroke-width:2px" />
        <path id="path3980" d="M568.2,656.1H736" transform="translate(1 1)"
            style="fill:#ccc;stroke:#000;stroke-width:2px" />
        <path id="path3982" d="M684.65,684V656.2" transform="translate(1 1)"
            style="fill:#ccc;stroke:#000;stroke-width:2px" />
        <path id="path3984" d="M822.53,649V609.7l-27,8.2V644" transform="translate(1 1)"
            style="fill:#fff;stroke:#000;stroke-width:2px" />
        <path id="path3986" d="M822.53,609.7,933.6,579" transform="translate(1 1)"
            style="fill:#ccc;stroke:#000;stroke-width:2px" />
        <path id="path3988" d="M447.56,717V676.1H270.29v32.1l97.61-14.6" transform="translate(1 1)"
            style="fill:#fff;stroke:#000;stroke-width:2px" />
        <path id="path3990" d="M270.29,703.3,140.68,721.2" transform="translate(1 1)"
            style="fill:#ccc;stroke:#000;stroke-width:2px" />
        <rect id="rect3992" x="42.28" y="696.1" width="48.45" height="33.2"
            style="fill:#ff5460;stroke:#000;stroke-width:2px" />
        <rect id="rect3994" x="105.99" y="274.9" width="75.17" height="128"
            style="fill:#ff8;stroke:#000;stroke-width:2px" />
        <path id="path3997" d="M137.39,442.9V414.3s-21-4.3-36,9.3" transform="translate(1 1)"
            style="fill:#ff8;stroke:#000;stroke-width:2px" />
        <path id="path3999" d="M89.33,468.6c-16-27.9-3.59-44.6,9.57-55.7" transform="translate(1 1)"
            style="fill:#ff8;stroke:#000;stroke-width:2px" />
        <path id="path4001" d="M112.46,578.3H73.18" transform="translate(1 1)"
            style="fill:#ccc;stroke:#000;stroke-width:2px" />
    </g>
    <g id="_1.210" data-name="1.210">
        <text transform="translate(305.52 468.66)"
            style="isolation:isolate;font-size:20.2898006439209px;font-family:ArialMT, Arial">1.210
        </text>
    </g>
    <g id="_1.437" data-name="1.437">
        <text transform="translate(662.22 222.13)"
            style="isolation:isolate;font-size:20.2898006439209px;font-family:ArialMT, Arial">1.437
        </text>
    </g>
    <g id="_1.115" data-name="1.115">
        <text transform="translate(883.57 244.58)"
            style="isolation:isolate;font-size:20.2898006439209px;font-family:ArialMT, Arial">1.
            <tspan x="16.92" y="0" style="letter-spacing:-0.07419882625676626em">1</tspan>
            <tspan x="26.7" y="0">15</tspan>
        </text>
    </g>
    <g id="_1.301" data-name="1.301">
        <text transform="translate(633.73 337.88)"
            style="isolation:isolate;font-size:20.2898006439209px;font-family:ArialMT, Arial">1.301
        </text>
    </g>
    <g id="exit-4">
        <text transform="translate(90.72 553.56)"
            style="isolation:isolate;font-size:20.2898006439209px;font-family:ArialMT, Arial">exit
        </text>
    </g>
    <g id="exit-4-2" data-name="exit-4">
        <text transform="translate(837.09 178.66)"
            style="isolation:isolate;font-size:20.2898006439209px;font-family:ArialMT, Arial">exit
        </text>
    </g>
    <g id="exit-4-3" data-name="exit-4">
        <text transform="translate(571.09 330.44)"
            style="isolation:isolate;font-size:20.2898006439209px;font-family:ArialMT, Arial">exit
        </text>
    </g>
    <g id="exit-4-4" data-name="exit-4">
        <text transform="translate(49.46 718.04)"
            style="isolation:isolate;font-size:20.2898006439209px;font-family:ArialMT, Arial">exit
        </text>
    </g>
    <g id="_1.130" data-name="1.130">
        <text transform="translate(729.45 510.44)"
            style="isolation:isolate;font-size:20.2898006439209px;font-family:ArialMT, Arial">1.130
        </text>
    </g>
    <g id="_1.424" data-name="1.424">
        <text transform="translate(612.38 460.01)"
            style="isolation:isolate;font-size:20.289400100708008px;font-family:ArialMT, Arial">
            1.424
        </text>
    </g>
    <g id="_1.345" data-name="1.345">
        <text transform="translate(113.52 350.24)"
            style="isolation:isolate;font-size:20.2898006439209px;font-family:ArialMT, Arial">1.345
        </text>
    </g>
    <g id="Men">
        <text transform="translate(712.38 350.24)"
            style="isolation:isolate;font-size:20.289400100708008px;font-family:ArialMT, Arial">Men&apos;s
        </text>
    </g>
    <g id="Women_s" data-name="Women&apos;s">
        <text transform="translate(674.26 414.72)"
            style="isolation:isolate;font-size:20.289400100708008px;font-family:ArialMT, Arial">
            <tspan style="letter-spacing:-0.01805524323605147em">W</tspan>
            <tspan x="18.78" y="0">omen&apos;s</tspan>
        </text>
    </g>
    <g id="_1.350" data-name="1.350">
        <g style="isolation:isolate">
            <text transform="translate(143.6 425)"
                style="isolation:isolate;font-size:20.2898006439209px;font-family:ArialMT, Arial">1.
            </text>
            <text transform="translate(143.6 449.3)"
                style="isolation:isolate;font-size:20.2898006439209px;font-family:ArialMT, Arial">
                350
            </text>
        </g>
    </g>
    <g id="_1.338" data-name="1.338">
        <text transform="translate(300.59 300.3)"
            style="isolation:isolate;font-size:20.2898006439209px;font-family:ArialMT, Arial">1.338
        </text>
    </g>
    <g id="_1.335" data-name="1.335">
        <text transform="translate(512.63 355.68)"
            style="isolation:isolate;font-size:20.2898006439209px;font-family:ArialMT, Arial">1.309
        </text>
    </g>
</svg>