<svg id="Layer_1" data-name="Layer 1" xmlns="http://www.w3.org/2000/svg" viewBox="0 0 1000 920">
    <g id="layer2">
        <g id="g3987">
            <path id="background" d="M10.52,52h1003V972H10.52Z" transform="translate(-9.52 -51)"
                style="fill:#f8f8f8;stroke:#000;stroke-width:2px" />
            <path id="H867" d="M10.52,52H150.46V154.66H10.52Z" transform="translate(-9.52 -51)"
                style="fill:#ff8;stroke:#000;stroke-width:2px" />
            <path id="H801" d="M150.46,52h89.27V187.48H150.46Z" transform="translate(-9.52 -51)"
                style="fill:#ff8;stroke:#000;stroke-width:2px" />
            <path id="H803" d="M239.73,52h98.19V187.48H239.73Z" transform="translate(-9.52 -51)"
                style="fill:#ff8;stroke:#000;stroke-width:2px" />
            <path id="rect3787" d="M337.92,52h81.92v54.87H337.92Z" transform="translate(-9.52 -51)"
                style="fill:#ff8;stroke:#000;stroke-width:2px" />
            <path id="rect3789" d="M357.35,106.87h62.49v39.91H357.35Z"
                transform="translate(-9.52 -51)" style="fill:#ff8;stroke:#000;stroke-width:2px" />
            <path id="rect3791" d="M357.35,146.78h62.49v40.7H357.35Z"
                transform="translate(-9.52 -51)" style="fill:#ff8;stroke:#000;stroke-width:2px" />
            <path id="H807" d="M419.84,52h94V187.48h-94Z" transform="translate(-9.52 -51)"
                style="fill:#ff8;stroke:#000;stroke-width:2px" />
            <path id="H811" d="M596,52h97.67V187.48H596Z" transform="translate(-9.52 -51)"
                style="fill:#ff8;stroke:#000;stroke-width:2px" />
            <path id="H813" d="M693.69,52h81.92V187.48H693.69Z" transform="translate(-9.52 -51)"
                style="fill:#ff8;stroke:#000;stroke-width:2px" />
            <path id="H815" d="M874.85,52V157H847v30.46H775.61V52Z" transform="translate(-9.52 -51)"
                style="fill:#ff8;stroke:#000;stroke-width:2px" />
            <path id="H817" d="M874.85,52h138.63V187H874.85Z" transform="translate(-9.52 -51)"
                style="fill:#ff8;stroke:#000;stroke-width:2px" />
            <path id="H819" d="M874.85,187h138.63V284.1H874.85Z" transform="translate(-9.52 -51)"
                style="fill:#ff8;stroke:#000;stroke-width:2px" />
            <path id="H821" d="M874.85,284.1h138.63v84.54H874.85Z" transform="translate(-9.52 -51)"
                style="fill:#ff8;stroke:#000;stroke-width:2px" />
            <path id="H823" d="M874.85,368.64h138.63v97.15H874.85Z" transform="translate(-9.52 -51)"
                style="fill:#ff8;stroke:#000;stroke-width:2px" />
            <path id="H825" d="M874.85,465.79h138.63v84.54H874.85Z" transform="translate(-9.52 -51)"
                style="fill:#ff8;stroke:#000;stroke-width:2px" />
            <path id="H827" d="M874.85,550.33h138.63V645.9H874.85Z" transform="translate(-9.52 -51)"
                style="fill:#ff8;stroke:#000;stroke-width:2px" />
            <path id="H829" d="M874.85,645.9h138.63v93H874.85Z" transform="translate(-9.52 -51)"
                style="fill:#ff8;stroke:#000;stroke-width:2px" />
            <path id="H831" d="M874.33,828.64h139.15V972H874.33Z" transform="translate(-9.52 -51)"
                style="fill:#ff8;stroke:#000;stroke-width:2px" />
            <path id="H833" d="M783.48,828.64h90.85V972H783.48Z" transform="translate(-9.52 -51)"
                style="fill:#ff8;stroke:#000;stroke-width:2px" />
            <path id="H835" d="M691.06,828.64h92.42V972H691.06Z" transform="translate(-9.52 -51)"
                style="fill:#ff8;stroke:#000;stroke-width:2px" />
            <path id="H837" d="M598.12,828.64h92.94V972H598.12Z" transform="translate(-9.52 -51)"
                style="fill:#ff8;stroke:#000;stroke-width:2px" />
            <path id="H841" d="M425.36,828.12h87.16V972H425.36Z" transform="translate(-9.52 -51)"
                style="fill:#ff8;stroke:#000;stroke-width:2px" />
            <path id="H843" d="M326.63,828.12h98.73V972H326.63Z" transform="translate(-9.52 -51)"
                style="fill:#ff8;stroke:#000;stroke-width:2px" />
            <path id="H845" d="M243.67,828.12h83V972h-83Z" transform="translate(-9.52 -51)"
                style="fill:#ff8;stroke:#000;stroke-width:2px" />
            <path id="H847" d="M144.42,828.12h99.25V972H144.42Z" transform="translate(-9.52 -51)"
                style="fill:#ff8;stroke:#000;stroke-width:2px" />
            <path id="H849" d="M10.52,828.12h133.9V972H10.52Z" transform="translate(-9.52 -51)"
                style="fill:#ff8;stroke:#000;stroke-width:2px" />
            <path id="rect3843" d="M10.52,791.38h74v46.74h-74Z" transform="translate(-9.52 -51)"
                style="fill:#ff8;stroke:#000;stroke-width:2px" />
            <path id="rect3845" d="M10.52,734.65H105v46.73H10.52Z" transform="translate(-9.52 -51)"
                style="fill:#ff8;stroke:#000;stroke-width:2px" />
            <path id="rect3847" d="M105,734.65h45.68V794H105Z" transform="translate(-9.52 -51)"
                style="fill:#ff8;stroke:#000;stroke-width:2px" />
            <path id="H853" d="M10.52,643.28h140.2v91.37H10.52Z" transform="translate(-9.52 -51)"
                style="fill:#ff8;stroke:#000;stroke-width:2px" />
            <path id="H855" d="M10.52,550.86h140.2v92.42H10.52Z" transform="translate(-9.52 -51)"
                style="fill:#ff8;stroke:#000;stroke-width:2px" />
            <path id="H857" d="M10.52,462.64h140.2v88.22H10.52Z" transform="translate(-9.52 -51)"
                style="fill:#ff8;stroke:#000;stroke-width:2px" />
            <path id="H859" d="M10.52,370.74h140.2v91.9H10.52Z" transform="translate(-9.52 -51)"
                style="fill:#ff8;stroke:#000;stroke-width:2px" />
            <path id="H861" d="M10.52,280.42h140.2v90.32H10.52Z" transform="translate(-9.52 -51)"
                style="fill:#ff8;stroke:#000;stroke-width:2px" />
            <path id="H863" d="M150.72,280.42V211.11H125v-21H10.52v90.32Z"
                transform="translate(-9.52 -51)" style="fill:#ff8;stroke:#000;stroke-width:2px" />
            <path id="rect3859" d="M10.52,154.66H125V190.1H10.52Z" transform="translate(-9.52 -51)"
                style="fill:#ff8;stroke:#000;stroke-width:2px" />
            <path id="path3863" d="M903.21,828.64V802.91H875.9l-1-64.06h138.63v89.79Z"
                transform="translate(-9.52 -51)" style="fill:#ff8;stroke:#000;stroke-width:2px" />
            <path id="exit_top_left" data-name="exit top left"
                d="M204.81,242.62h91.37V375.47H204.81Z" transform="translate(-9.52 -51)"
                style="fill:#ff5460;stroke:#000;stroke-width:2px" />
            <path id="Women_s" data-name="Women&apos;s" d="M296.18,242.62H460v90.84H296.18Z"
                transform="translate(-9.52 -51)"
                style="fill:#a9eaff;stroke:#000;stroke-width:2px" />
            <path id="Women_s_door" data-name="Women&apos;s door"
                d="M373.37,242.62h50.41V293H373.37Z" transform="translate(-9.52 -51)"
                style="fill:#a9eaff;stroke:#000;stroke-width:2px" />
            <path id="rect3877" d="M296.18,333.46h32v42h-32Z" transform="translate(-9.52 -51)"
                style="fill:#ff8;stroke:#000;stroke-width:2px" />
            <path id="Elevator1" d="M328.21,333.46h33.08v34.66H328.21Z"
                transform="translate(-9.52 -51)"
                style="fill:#60f960;stroke:#000;stroke-width:2px" />
            <path id="Elevator2" d="M361.29,333.46H390.7v34.66H361.29Z"
                transform="translate(-9.52 -51)"
                style="fill:#60f960;stroke:#000;stroke-width:2px" />
            <path id="rect3885" d="M460,333.46h53.56v40.43H460Z" transform="translate(-9.52 -51)"
                style="fill:#ff8;stroke:#000;stroke-width:2px" />
            <path id="rect3887" d="M460,297.23h53.56v36.23H460Z" transform="translate(-9.52 -51)"
                style="fill:#ff8;stroke:#000;stroke-width:2px" />
            <path id="rect3889" d="M460,258.37h53.56v38.86H460Z" transform="translate(-9.52 -51)"
                style="fill:#ff8;stroke:#000;stroke-width:2px" />
            <path id="rect3891" d="M390.7,333.46H460v40.43H390.7Z" transform="translate(-9.52 -51)"
                style="fill:#ff8;stroke:#000;stroke-width:2px" />
            <path id="escalator" d="M422.73,425.35h36.76V713.12H422.73Z"
                transform="translate(-9.52 -51)" style="fill:#ff8;stroke:#000;stroke-width:2px" />
            <path id="rect3897" d="M459.49,669h55.66v44.11H459.49Z" transform="translate(-9.52 -51)"
                style="fill:#ff8;stroke:#000;stroke-width:2px" />
            <path id="H862" d="M329.79,425.35h92.94V555.06H329.79Z" transform="translate(-9.52 -51)"
                style="fill:#ff8;stroke:#000;stroke-width:2px" />
            <path id="rect3901" d="M279.9,425.35h49.89v84H279.9Z" transform="translate(-9.52 -51)"
                style="fill:#ff8;stroke:#000;stroke-width:2px" />
            <path id="rect3903" d="M279.9,509.37h49.89v45.69H279.9Z"
                transform="translate(-9.52 -51)" style="fill:#ff8;stroke:#000;stroke-width:2px" />
            <path id="rect3908" d="M213.74,468.41h50.41v41H213.74Z" transform="translate(-9.52 -51)"
                style="fill:#ff8;stroke:#000;stroke-width:2px" />
            <path id="rect3913" d="M213.74,425.35h50.41v43.06H213.74Z"
                transform="translate(-9.52 -51)" style="fill:#ff8;stroke:#000;stroke-width:2px" />
            <path id="path3917" d="M279.9,555.32V526.7H264.67l-.52-17.33H213.74v46Z"
                transform="translate(-9.52 -51)" style="fill:#ff8;stroke:#000;stroke-width:2px" />
            <path id="exit_bottom_left" data-name="exit bottom left"
                d="M278.32,673.73h53v96.62h-53Z" transform="translate(-9.52 -51)"
                style="fill:#ff5460;stroke:#000;stroke-width:2px" />
            <path id="rect3923" d="M213.74,673.73h64.58v96.62H213.74Z"
                transform="translate(-9.52 -51)" style="fill:#ff8;stroke:#000;stroke-width:2px" />
            <path id="H854" d="M213.74,555.32v84.81h77.71V629.62h38.6V555.06Z"
                transform="translate(-9.52 -51)" style="fill:#ff8;stroke:#000;stroke-width:2px" />
            <path id="H842" d="M330.05,555.06V657.45h26v15.49h66.69V555.06Z"
                transform="translate(-9.52 -51)" style="fill:#ff8;stroke:#000;stroke-width:2px" />
            <path id="rect3931" d="M213.74,640.13h77.71v33.6H213.74Z"
                transform="translate(-9.52 -51)" style="fill:#ff8;stroke:#000;stroke-width:2px" />
            <path id="rect3933" d="M331.36,734.51h61.26v35.84H331.36Z"
                transform="translate(-9.52 -51)" style="fill:#ff8;stroke:#000;stroke-width:2px" />
            <path id="path3935" d="M422.73,713.12v38.47h56.4v17.82h36.39l-.37-56.29Z"
                transform="translate(-9.52 -51)" style="fill:#ff8;stroke:#000;stroke-width:2px" />
            <path id="path3937" d="M392.62,734.51V672.94H356v24.81H331.36v36.76Z"
                transform="translate(-9.52 -51)" style="fill:#ff8;stroke:#000;stroke-width:2px" />
            <path id="Men_s" data-name="Men&apos;s" d="M596.1,243.27h95V374.71h-95Z"
                transform="translate(-9.52 -51)"
                style="fill:#a9eaff;stroke:#000;stroke-width:2px" />
            <path id="Men_s_door" data-name="Men&apos;s door" d="M613.35,243.27h17.32V262H613.35Z"
                transform="translate(-9.52 -51)"
                style="fill:#a9eaff;stroke:#000;stroke-width:2px" />
            <path id="exit_top_right" data-name="exit top right" d="M691.15,243.27h53V374.71h-53Z"
                transform="translate(-9.52 -51)"
                style="fill:#ff5460;stroke:#000;stroke-width:2px" />
            <path id="rect3947" d="M744.1,243.27h70.63V346.33H744.1Z"
                transform="translate(-9.52 -51)" style="fill:#ff8;stroke:#000;stroke-width:2px" />
            <path id="rect3949" d="M744.1,346.33h70.63v28.38H744.1Z"
                transform="translate(-9.52 -51)" style="fill:#ff8;stroke:#000;stroke-width:2px" />
            <path id="H820_door" data-name="H820 door" d="M756.7,431.66h57.5v59.86H756.7Z"
                transform="translate(-9.52 -51)" style="fill:#ff8;stroke:#000;stroke-width:2px" />
            <path id="H820" d="M596.1,374.71V548.24H775.44V491.52H756.69V431.65h18.75V374.71Z"
                transform="translate(-9.52 -51)" style="fill:#ff8;stroke:#000;stroke-width:2px" />
            <path id="H822" d="M693.69,548.23H816.56v126H693.69Z" transform="translate(-9.52 -51)"
                style="fill:#ff8;stroke:#000;stroke-width:2px" />
            <path id="exit_bottom_right" data-name="exit bottom right"
                d="M693.69,674.26h53.56v95.83H693.69Z" transform="translate(-9.52 -51)"
                style="fill:#ff5460;stroke:#000;stroke-width:2px" />
            <path id="rect3959" d="M747.25,674.26h69.31v95.83H747.25Z"
                transform="translate(-9.52 -51)" style="fill:#ff8;stroke:#000;stroke-width:2px" />
            <path id="rect3961" d="M652.2,674.26h41.49v95.83H652.2Z"
                transform="translate(-9.52 -51)" style="fill:#ff8;stroke:#000;stroke-width:2px" />
            <path id="rect3965" d="M596.1,643.54h36.76V707H596.1Z" transform="translate(-9.52 -51)"
                style="fill:#ff8;stroke:#000;stroke-width:2px" />
            <path id="rect3969" d="M596.1,707h36.76v32.34H596.1Z" transform="translate(-9.52 -51)"
                style="fill:#ff8;stroke:#000;stroke-width:2px" />
            <path id="rect3971" d="M596.1,739.37h36.76v30.72H596.1Z"
                transform="translate(-9.52 -51)" style="fill:#ff8;stroke:#000;stroke-width:2px" />
            <path id="path3973" d="M652.2,674.26H632.86" transform="translate(-9.52 -51)"
                style="fill:#da3636;stroke:#000;stroke-width:2px" />
            <path id="path3975" d="M693.69,548.23H596.1" transform="translate(-9.52 -51)"
                style="fill:#da3636;stroke:#000;stroke-width:2px" />
            <path id="path3981" d="M756.7,491.52l-33.61,56.71" transform="translate(-9.52 -51)"
                style="fill:#da3636;stroke:#000;stroke-width:2px" />
            <path id="path3983" d="M756.7,431.66l-34.36-57" transform="translate(-9.52 -51)"
                style="fill:#da3636;stroke:#000;stroke-width:2px" />
            <path id="path3985" d="M513.57,424.3V612.35" transform="translate(-9.52 -51)"
                style="fill:#da3636;stroke:#000;stroke-width:2px" />
            <path id="rect4717" d="M291.44,629.62v44.12h39.91v24H356V657.46H330V629.62Z"
                transform="translate(-9.52 -51)" style="fill:#ff8;stroke:#000;stroke-width:2px" />
            <path id="H832.06" d="M596.1,546.24v95.31h36.75v30.72h60.84v-126Z"
                transform="translate(-9.52 -51)" style="fill:#ff8;stroke:#000;stroke-width:2px" />
            <g id="_867" data-name="867" style="isolation:isolate">
                <text transform="translate(352.47 40.48)"
                    style="isolation:isolate;font-size:24px;font-family:ArialMT, Arial">805
                </text>
            </g>
            <g id="_801" data-name="801" style="isolation:isolate">
                <text transform="translate(173.83 79.49)"
                    style="isolation:isolate;font-size:24px;font-family:ArialMT, Arial">801
                </text>
            </g>
            <g id="_803" data-name="803" style="isolation:isolate">
                <text transform="translate(254.63 79.49)"
                    style="isolation:isolate;font-size:24px;font-family:ArialMT, Arial">803
                </text>
            </g>
            <g id="_807" data-name="807" style="isolation:isolate">
                <text transform="translate(442.83 79.49)"
                    style="isolation:isolate;font-size:24px;font-family:ArialMT, Arial">807
                </text>
            </g>
            <g id="_811" data-name="811" style="isolation:isolate">
                <text transform="translate(621.15 75.83)"
                    style="isolation:isolate;font-size:24px;font-family:ArialMT, Arial">8
                    <tspan x="13.35" y="0" style="letter-spacing:-0.07421875em">1</tspan>
                    <tspan x="24.91" y="0">1</tspan>
                </text>
            </g>
            <g id="_813" data-name="813" style="isolation:isolate">
                <text transform="translate(708.1 75.83)"
                    style="isolation:isolate;font-size:24px;font-family:ArialMT, Arial">813
                </text>
            </g>
            <g id="_815" data-name="815" style="isolation:isolate">
                <text transform="translate(796.83 75.83)"
                    style="isolation:isolate;font-size:24px;font-family:ArialMT, Arial">815
                </text>
            </g>
            <g id="_817" data-name="817" style="isolation:isolate">
                <text transform="translate(913.83 79.49)"
                    style="isolation:isolate;font-size:24px;font-family:ArialMT, Arial">817
                </text>
            </g>
            <g id="_819" data-name="819" style="isolation:isolate">
                <text transform="translate(913.83 201.65)"
                    style="isolation:isolate;font-size:24px;font-family:ArialMT, Arial">819
                </text>
            </g>
            <g id="_821" data-name="821" style="isolation:isolate">
                <text transform="translate(913.83 293)"
                    style="isolation:isolate;font-size:24px;font-family:ArialMT, Arial">821
                </text>
            </g>
            <g id="_823" data-name="823" style="isolation:isolate">
                <text transform="translate(913.83 381.21)"
                    style="isolation:isolate;font-size:24px;font-family:ArialMT, Arial">823
                </text>
            </g>
            <g id="_825" data-name="825" style="isolation:isolate">
                <text transform="translate(913.83 465.59)"
                    style="isolation:isolate;font-size:24px;font-family:ArialMT, Arial">825
                </text>
            </g>
            <g id="_827" data-name="827" style="isolation:isolate">
                <text transform="translate(913.83 568.36)"
                    style="isolation:isolate;font-size:24px;font-family:ArialMT, Arial">827
                </text>
            </g>
            <g id="_829" data-name="829" style="isolation:isolate">
                <text transform="translate(918.83 655.31)"
                    style="isolation:isolate;font-size:24px;font-family:ArialMT, Arial">829
                </text>
            </g>
            <g id="_831" data-name="831" style="isolation:isolate">
                <text transform="translate(918.83 868.49)"
                    style="isolation:isolate;font-size:24px;font-family:ArialMT, Arial">831
                </text>
            </g>
            <g id="_833" data-name="833" style="isolation:isolate">
                <text transform="translate(804.68 868.49)"
                    style="isolation:isolate;font-size:24px;font-family:ArialMT, Arial">833
                </text>
            </g>
            <g id="_835" data-name="835" style="isolation:isolate">
                <text transform="translate(710.95 868.49)"
                    style="isolation:isolate;font-size:24px;font-family:ArialMT, Arial">835
                </text>
            </g>
            <g id="_837" data-name="837" style="isolation:isolate">
                <text transform="translate(612.49 868.49)"
                    style="isolation:isolate;font-size:24px;font-family:ArialMT, Arial">837
                </text>
            </g>
            <g id="_841" data-name="841" style="isolation:isolate">
                <text transform="translate(442.83 868.49)"
                    style="isolation:isolate;font-size:24px;font-family:ArialMT, Arial">841
                </text>
            </g>
            <g id="_843" data-name="843" style="isolation:isolate">
                <text transform="translate(351.77 868.49)"
                    style="isolation:isolate;font-size:24px;font-family:ArialMT, Arial">843
                </text>
            </g>
            <g id="_845" data-name="845" style="isolation:isolate">
                <text transform="translate(262.38 868.49)"
                    style="isolation:isolate;font-size:24px;font-family:ArialMT, Arial">845
                </text>
            </g>
            <g id="_847" data-name="847" style="isolation:isolate">
                <text transform="translate(166.83 868.49)"
                    style="isolation:isolate;font-size:24px;font-family:ArialMT, Arial">847
                </text>
            </g>
            <g id="_849" data-name="849" style="isolation:isolate">
                <text transform="translate(38.02 868.49)"
                    style="isolation:isolate;font-size:24px;font-family:ArialMT, Arial">849
                </text>
            </g>
            <g id="_853" data-name="853" style="isolation:isolate">
                <text transform="translate(34.83 646.74)"
                    style="isolation:isolate;font-size:24px;font-family:ArialMT, Arial">853
                </text>
            </g>
            <g id="_855" data-name="855" style="isolation:isolate">
                <text transform="translate(34.83 558.26)"
                    style="isolation:isolate;font-size:24px;font-family:ArialMT, Arial">855
                </text>
            </g>
            <g id="_857" data-name="857" style="isolation:isolate">
                <text transform="translate(38.02 461)"
                    style="isolation:isolate;font-size:24px;font-family:ArialMT, Arial">857
                </text>
            </g>
            <g id="_859" data-name="859" style="isolation:isolate">
                <text transform="translate(38.02 380.66)"
                    style="isolation:isolate;font-size:24px;font-family:ArialMT, Arial">859
                </text>
            </g>
            <g id="_861" data-name="861" style="isolation:isolate">
                <text transform="translate(42.83 282.46)"
                    style="isolation:isolate;font-size:24px;font-family:ArialMT, Arial">861
                </text>
            </g>
            <g id="_863" data-name="863" style="isolation:isolate">
                <text transform="translate(42.83 196.49)"
                    style="isolation:isolate;font-size:24px;font-family:ArialMT, Arial">863
                </text>
            </g>
            <g id="exit" style="isolation:isolate">
                <text transform="translate(693.83 683.51)"
                    style="isolation:isolate;font-size:24px;font-family:ArialMT, Arial">exit
                </text>
            </g>
            <g id="Women_s-2" data-name="Women&apos;s" style="isolation:isolate">
                <text transform="translate(320.27 268.49)"
                    style="isolation:isolate;font-size:24px;font-family:ArialMT, Arial">
                    <tspan style="letter-spacing:-0.01806640625em">W</tspan>
                    <tspan x="22.22" y="0">omen&apos;s</tspan>
                </text>
            </g>
            <g id="Men_s-2" data-name="Men&apos;s" style="isolation:isolate">
                <text transform="translate(603.83 274.58)"
                    style="isolation:isolate;font-size:24px;font-family:ArialMT, Arial">Men&apos;s
                </text>
            </g>
            <g id="_820" data-name="820" style="isolation:isolate">
                <text transform="translate(647.83 431.49)"
                    style="isolation:isolate;font-size:24px;font-family:ArialMT, Arial">820
                </text>
            </g>
            <g id="_832.06" data-name="832.06" style="isolation:isolate">
                <text transform="translate(603.83 563)"
                    style="isolation:isolate;font-size:24px;font-family:ArialMT, Arial">832.06
                </text>
            </g>
            <g id="_822" data-name="822" style="isolation:isolate">
                <text transform="translate(725.13 574.49)"
                    style="isolation:isolate;font-size:24px;font-family:ArialMT, Arial">822
                </text>
            </g>
            <g id="exit-2" data-name="exit" style="isolation:isolate">
                <text transform="translate(275.63 683.51)"
                    style="isolation:isolate;font-size:24px;font-family:ArialMT, Arial">exit
                </text>
            </g>
            <g id="exit-3" data-name="exit" style="isolation:isolate">
                <text transform="translate(688.83 274.58)"
                    style="isolation:isolate;font-size:24px;font-family:ArialMT, Arial">exit
                </text>
            </g>
            <g id="_862" data-name="862" style="isolation:isolate">
                <text transform="translate(346.52 455.75)"
                    style="isolation:isolate;font-size:24px;font-family:ArialMT, Arial">862
                </text>
            </g>
            <g id="_842" data-name="842" style="isolation:isolate">
                <text transform="translate(347.83 563)"
                    style="isolation:isolate;font-size:24px;font-family:ArialMT, Arial">842
                </text>
            </g>
            <g id="_854" data-name="854" style="isolation:isolate">
                <text transform="translate(240.98 558.26)"
                    style="isolation:isolate;font-size:24px;font-family:ArialMT, Arial">854
                </text>
            </g>
            <g id="exit-4" data-name="exit" style="isolation:isolate">
                <text transform="translate(221.83 274.58)"
                    style="isolation:isolate;font-size:24px;font-family:ArialMT, Arial">exit
                </text>
            </g>
            <g id="_867-2" data-name="867" style="isolation:isolate">
                <text transform="translate(48.26 63.54)"
                    style="isolation:isolate;font-size:24px;font-family:ArialMT, Arial">867
                </text>
            </g>
        </g>
    </g>
</svg>